<?xml version="1.0" standalone="no"?>
<!DOCTYPE svg PUBLIC "-//W3C//DTD SVG 20010904//EN"
 "http://www.w3.org/TR/2001/REC-SVG-20010904/DTD/svg10.dtd">
<svg version="1.0" xmlns="http://www.w3.org/2000/svg"
 width="1024.000000pt" height="1024.000000pt" viewBox="0 0 1024.000000 1024.000000"
 preserveAspectRatio="xMidYMid meet">
<metadata>
Created by potrace 1.11, written by Peter Selinger 2001-2013
</metadata>
<g transform="translate(0.000000,1024.000000) scale(0.100000,-0.100000)"
fill="#000000" stroke="none">
<path d="M880 10233 c-167 -26 -300 -76 -427 -158 -214 -140 -371 -366 -429
-620 -18 -77 -19 -228 -19 -4335 0 -4105 1 -4258 19 -4335 87 -380 381 -674
761 -761 77 -18 230 -19 4335 -19 4105 0 4258 1 4335 19 380 87 674 381 761
761 18 77 19 230 19 4340 l0 4260 -22 88 c-94 368 -364 638 -738 740 l-80 22
-4245 1 c-2335 1 -4256 0 -4270 -3z m2225 -2836 c601 -107 958 -461 1080
-1071 42 -212 45 -296 45 -1220 0 -1016 9 -1258 56 -1598 l7 -48 -322 0 c-250
0 -321 3 -321 13 0 6 -11 107 -25 222 -14 116 -25 218 -25 228 0 32 -26 14
-97 -68 -159 -185 -375 -326 -623 -409 -143 -48 -257 -67 -435 -73 -513 -18
-915 199 -1119 604 -127 253 -151 576 -66 883 27 99 117 279 179 361 71 93
224 236 323 302 363 242 885 374 1552 394 l219 6 -6 146 c-19 498 -263 771
-734 822 -338 36 -798 -71 -1101 -256 -31 -20 -43 -23 -47 -13 -3 7 -39 112
-80 233 -87 252 -93 217 44 292 230 126 532 217 851 258 142 18 525 13 645 -8z
m4606 -6 c308 -66 544 -195 764 -416 141 -140 230 -262 319 -435 180 -352 257
-724 243 -1184 -13 -419 -86 -732 -244 -1046 -268 -533 -739 -864 -1323 -931
-136 -15 -384 -6 -511 20 -343 69 -630 243 -817 493 l-67 90 -3 -1051 -2
-1051 -350 0 -350 0 0 2343 c0 2103 -5 2681 -26 3010 l-6 97 320 0 319 0 13
-292 c7 -161 15 -311 19 -333 l7 -40 44 65 c141 210 326 384 527 497 146 81
362 151 552 178 141 21 447 13 572 -14z"/>
<path d="M3150 5423 c-377 -35 -572 -78 -766 -167 -221 -103 -372 -262 -434
-461 -32 -99 -39 -303 -15 -411 41 -191 148 -335 306 -413 125 -61 191 -75
344 -75 178 0 303 29 450 102 255 126 449 378 501 650 10 55 14 164 14 428 l0
354 -182 -2 c-101 0 -199 -3 -218 -5z"/>
<path d="M7045 6849 c-151 -22 -322 -89 -458 -180 -147 -100 -311 -297 -393
-474 -45 -97 -99 -286 -114 -400 -18 -133 -8 -893 13 -995 42 -206 139 -389
287 -544 230 -239 550 -357 884 -326 229 22 401 85 558 207 253 194 406 482
484 908 15 80 18 152 19 360 0 230 -3 274 -23 380 -72 379 -243 683 -485 866
-214 162 -504 236 -772 198z"/>
</g>
</svg>
